<svg width="26" height="26" viewBox="0 0 26 26" fill="none" xmlns="http://www.w3.org/2000/svg">
<g clip-path="url(#clip0)">
<path d="M25.1768 23.5326L23.3997 18.2H21.4497L22.5326 23.4H3.46675L4.54965 18.2H2.59965L0.821255 23.5326C0.370155 24.8898 1.16965 26 2.59965 26H23.3997C24.8297 26 25.6292 24.8898 25.1768 23.5326ZM19.4997 6.5C19.4997 4.77609 18.8148 3.12279 17.5958 1.90381C16.3769 0.684819 14.7236 0 12.9997 0C11.2757 0 9.62245 0.684819 8.40346 1.90381C7.18447 3.12279 6.49965 4.77609 6.49965 6.5C6.49965 12.7075 12.9997 19.5 12.9997 19.5C12.9997 19.5 19.4997 12.7075 19.4997 6.5ZM9.48966 6.578C9.48966 4.6397 11.0601 3.0693 12.9997 3.0693C13.9304 3.0693 14.823 3.43903 15.4811 4.09716C16.1393 4.7553 16.509 5.64791 16.509 6.57865C16.509 7.50939 16.1393 8.402 15.4811 9.06013C14.823 9.71827 13.9304 10.088 12.9997 10.088C12.0687 10.088 11.176 9.7182 10.5177 9.05994C9.85946 8.40169 9.48966 7.50891 9.48966 6.578Z" fill="white"/>
</g>
<defs>
<clipPath id="clip0">
<rect width="26" height="26" fill="white"/>
</clipPath>
</defs>
</svg>
