<svg width="152" height="40" viewBox="0 0 152 40" fill="none" xmlns="http://www.w3.org/2000/svg">
<path fill-rule="evenodd" clip-rule="evenodd" d="M97.0276 38.649C91.7207 38.649 87.5258 37.0111 84.2244 33.6575C81.3278 30.7168 79.6585 27.0106 79.1175 22.325C78.5825 17.6875 79.1908 13.6157 80.9753 9.87654C83.922 3.70231 88.9311 0.390009 95.8655 0.031383C101.042 -0.236704 105.353 1.29069 108.669 4.56889C111.081 6.95345 112.431 9.99061 112.796 13.8532L112.841 14.3376H103.979L103.88 14.0342C103.828 13.8768 103.78 13.7132 103.732 13.5465L103.708 13.4675L103.702 13.4471V13.4467C103.584 13.0475 103.462 12.6344 103.293 12.2588C102.288 10.0235 100.106 8.51495 97.4568 8.22099C94.7312 7.9188 92.1976 8.95823 90.6761 11.003C88.6508 13.7215 87.89 17.0185 88.3495 21.0821C88.56 22.947 89.0823 24.7883 89.8606 26.4039C91.5241 29.8608 95.8701 31.514 99.5473 30.0901C101.691 29.26 103.031 27.5175 103.765 24.6072C103.848 24.2795 103.91 23.9472 103.975 23.5993L103.978 23.5795C104.01 23.4043 104.042 23.2256 104.08 23.0423L104.15 22.6859H112.986L113 23.1139C113.073 25.1975 112.485 27.0976 111.964 28.5192C109.726 34.6371 104.469 38.4196 97.9036 38.6337C97.6092 38.6442 97.3161 38.649 97.0276 38.649ZM97.0533 0.88503C96.6787 0.88503 96.2983 0.895612 95.9097 0.915601C89.3208 1.25542 84.5607 4.39957 81.7629 10.261C80.0528 13.8438 79.4724 17.7569 79.9877 22.2227C80.503 26.7026 82.0932 30.2395 84.8445 33.0344C88.1446 36.3867 92.4105 37.9282 97.8757 37.7495C104.072 37.5472 109.033 33.9809 111.143 28.2123C111.599 26.9659 112.11 25.3374 112.131 23.5714H104.869L104.854 23.6556L104.838 23.7418L104.827 23.7991C104.762 24.1533 104.698 24.4923 104.613 24.8259C103.803 28.0395 102.293 29.9749 99.8602 30.9156C95.7689 32.5005 90.9308 30.6498 89.0742 26.7919C88.2529 25.0859 87.7015 23.1456 87.4793 21.1821C86.9943 16.8833 87.8109 13.3793 89.9769 10.4703C91.6857 8.17513 94.5218 7.00754 97.5522 7.34148C100.512 7.66953 102.956 9.37095 104.09 11.8931C104.287 12.3317 104.419 12.7808 104.547 13.2159C104.57 13.2958 104.594 13.3746 104.617 13.4534H111.872C111.465 10.0376 110.214 7.33442 108.057 5.20148C105.126 2.30307 101.517 0.88503 97.0533 0.88503ZM41.874 20.0274C41.9579 13.9907 43.3771 9.04518 47.4661 5.20376C51.3293 1.57282 56.0151 0.533396 61.1242 1.04487C69.6198 1.89735 74.7999 8.56191 75.7294 16.2694C76.318 21.1527 75.7678 25.8136 73.1829 30.0713C70.5434 34.4194 66.6545 36.8392 61.6628 37.5177C57.6751 38.0598 53.8478 37.5988 50.3091 35.6035C45.6211 32.9602 43.1782 28.7132 42.2278 23.5042C42.0524 22.5431 41.9852 21.5617 41.9327 20.7951C41.9128 20.5039 41.8949 20.2437 41.874 20.0274ZM49.2924 19.3547C49.3634 21.9792 49.7298 24.5203 51.0164 26.8566C52.7637 30.0243 55.4858 31.4811 59.0036 31.461C62.49 31.4422 65.2597 29.976 66.8244 26.7848C69.2348 21.8676 69.1475 16.8221 66.8081 11.9189C65.2551 8.66068 62.3957 7.20737 58.8838 7.22266C55.3299 7.23911 52.5927 8.80061 50.9152 12.0553C49.7368 14.3434 49.3866 16.8221 49.2924 19.3547ZM21.8665 1.82052V30.5683H38.7122V36.8741H14.4914V1.82052H21.8665ZM7.37527 1.82052H0V36.8741H7.37527V1.82052ZM111.763 37.9483H122.958L137.359 18.6389L124.42 0.795762H113.884L126.066 18.6601L111.763 37.9483ZM122.522 37.0641H113.513L127.143 18.6824L115.55 1.67998H123.976L136.269 18.6306L122.522 37.0641ZM141.086 14.7634L135.221 6.93123L140.596 0.760507H151.489L141.086 14.7634ZM136.35 6.97355L141.083 13.2936L149.738 1.64472H140.99L136.35 6.97355ZM140.423 39.0013H152L140.635 22.8891L134.682 30.6954L140.423 39.0013ZM150.301 38.1172H140.879L135.767 30.7212L140.607 24.3742L150.301 38.1172Z" fill="black"/>
</svg>
